<svg width="116" height="97" viewBox="0 0 116 97" fill="none" xmlns="http://www.w3.org/2000/svg">
<path d="M111.439 29.6194C108.517 23.8433 104.336 18.6572 99.0124 14.2054C93.6886 9.75359 87.4866 6.25771 80.5791 3.81452C73.4228 1.28331 65.8262 0 58 0C50.1738 0 42.5772 1.28331 35.4212 3.81428C28.5134 6.25747 22.3114 9.75359 16.9879 14.2054C11.6644 18.6572 7.48345 23.8433 4.5617 29.6194C1.53468 35.6034 0 41.9559 0 48.5C0 55.0443 1.53468 61.3966 4.56141 67.3806C7.48316 73.1567 11.6638 78.3428 16.9876 82.7946C22.3114 87.2464 28.5134 90.7425 35.4209 93.1855C42.5772 95.7167 50.1738 97 58 97C65.8262 97 73.4228 95.7167 80.5788 93.1857C87.4863 90.7428 93.6883 87.2467 99.0121 82.7948C104.336 78.343 108.517 73.1569 111.438 67.3808C114.465 61.3966 116 55.0443 116 48.5C116 41.9559 114.465 35.6034 111.439 29.6194ZM58 89.725C30.7722 89.725 8.7 71.2681 8.7 48.5C8.7 25.7322 30.7722 7.275 58 7.275C85.2278 7.275 107.3 25.7322 107.3 48.5C107.3 71.2681 85.2278 89.725 58 89.725Z" fill="black"/>
<path d="M89.9 48.5C89.9 63.2086 75.5897 75.175 58 75.175V82.45C80.3868 82.45 98.6 67.22 98.6 48.5H89.9Z" fill="black"/>
<path d="M81.2 48.5C81.2 37.8028 70.7925 29.1 58 29.1C45.2075 29.1 34.8 37.8028 34.8 48.5C34.8 59.1972 45.2075 67.9 58 67.9C70.7925 67.9 81.2 59.1972 81.2 48.5ZM58 36.375C65.9953 36.375 72.5 41.8143 72.5 48.5C72.5 55.1857 65.9953 60.625 58 60.625C50.0047 60.625 43.5 55.1857 43.5 48.5C43.5 41.8143 50.0047 36.375 58 36.375Z" fill="black"/>
</svg>
